<?xml version="1.0" encoding="UTF-8"?>
<svg id="Layer_2" data-name="Layer 2" xmlns="http://www.w3.org/2000/svg" xmlns:xlink="http://www.w3.org/1999/xlink" viewBox="0 0 733.49 457.03">
  <defs>
    <style>
      .cls-1 {
        fill: url(#linear-gradient);
      }

      .cls-1, .cls-2, .cls-3, .cls-4, .cls-5, .cls-6, .cls-7, .cls-8, .cls-9, .cls-10, .cls-11, .cls-12, .cls-13, .cls-14, .cls-15, .cls-16, .cls-17, .cls-18, .cls-19, .cls-20, .cls-21, .cls-22, .cls-23, .cls-24, .cls-25, .cls-26, .cls-27, .cls-28, .cls-29, .cls-30, .cls-31, .cls-32, .cls-33, .cls-34, .cls-35, .cls-36, .cls-37, .cls-38, .cls-39, .cls-40, .cls-41, .cls-42, .cls-43, .cls-44, .cls-45, .cls-46, .cls-47, .cls-48, .cls-49, .cls-50, .cls-51, .cls-52, .cls-53, .cls-54 {
        fill-rule: evenodd;
        stroke-width: 0px;
      }

      .cls-2 {
        fill: url(#linear-gradient-8);
      }

      .cls-3 {
        fill: url(#linear-gradient-3);
      }

      .cls-4 {
        fill: url(#linear-gradient-2);
      }

      .cls-5 {
        fill: url(#linear-gradient-4);
      }

      .cls-6 {
        fill: url(#linear-gradient-5);
      }

      .cls-7 {
        fill: url(#linear-gradient-7);
      }

      .cls-8 {
        fill: url(#linear-gradient-6);
      }

      .cls-9 {
        fill: #6a6c6c;
      }

      .cls-10 {
        fill: #6a6b6b;
      }

      .cls-11 {
        fill: #696b6b;
      }

      .cls-12 {
        fill: #1d2222;
      }

      .cls-13 {
        fill: #1d1f20;
      }

      .cls-14 {
        fill: #1c1e1e;
      }

      .cls-15 {
        fill: #1c1c1c;
      }

      .cls-16 {
        fill: #1d2221;
      }

      .cls-17 {
        fill: #191c1c;
      }

      .cls-18 {
        fill: #242828;
      }

      .cls-19 {
        fill: #242a29;
      }

      .cls-20 {
        fill: #1f2221;
      }

      .cls-21 {
        fill: #202322;
      }

      .cls-22 {
        fill: #82807f;
      }

      .cls-23 {
        fill: #576c6b;
      }

      .cls-24 {
        fill: #1b1c1c;
      }

      .cls-25 {
        fill: #1b1d1d;
      }

      .cls-26 {
        fill: #1a1b1a;
      }

      .cls-27 {
        fill: #727171;
      }

      .cls-28 {
        fill: #a8ccdd;
      }

      .cls-29 {
        fill: #bcbbbb;
      }

      .cls-30 {
        fill: #bfbdbd;
      }

      .cls-31 {
        fill: #fbfdfd;
      }

      .cls-32 {
        fill: #e9faf9;
      }

      .cls-33 {
        fill: #e9e9e9;
      }

      .cls-34 {
        fill: #fcfdfd;
      }

      .cls-35 {
        fill: #fafefd;
      }

      .cls-36 {
        fill: #f2fdfc;
      }

      .cls-37 {
        fill: #edfcfb;
      }

      .cls-38 {
        fill: #fdfefe;
      }

      .cls-39 {
        fill: #7d7e7e;
      }

      .cls-40 {
        fill: #7d807f;
      }

      .cls-41 {
        fill: #6b6c6b;
      }

      .cls-42 {
        fill: #7d7f7f;
      }

      .cls-43 {
        fill: #6b6b6b;
      }

      .cls-44 {
        fill: #999897;
      }

      .cls-45 {
        fill: #7e8080;
      }

      .cls-46 {
        fill: #7e7f7f;
      }

      .cls-47 {
        fill: #7f7c7d;
      }

      .cls-48 {
        fill: #c2c2c0;
      }

      .cls-49 {
        fill: #a09e9f;
      }

      .cls-50 {
        fill: #ebfaf9;
      }

      .cls-51 {
        fill: #303936;
      }

      .cls-52 {
        fill: #8e8c8c;
      }

      .cls-53 {
        fill: #f3f7f7;
      }

      .cls-54 {
        fill: #f6fdfc;
      }
    </style>
    <linearGradient id="linear-gradient" x1="167.8" y1="462.63" x2="137.71" y2="410.51" gradientUnits="userSpaceOnUse">
      <stop offset=".31" stop-color="#a0c3d2" stop-opacity="0"/>
      <stop offset="1" stop-color="#a0c3d2"/>
    </linearGradient>
    <linearGradient id="linear-gradient-2" x1="212.91" y1="462.63" x2="182.82" y2="410.51" xlink:href="#linear-gradient"/>
    <linearGradient id="linear-gradient-3" x1="258.91" y1="462.63" x2="228.82" y2="410.51" xlink:href="#linear-gradient"/>
    <linearGradient id="linear-gradient-4" x1="304.81" x2="274.72" xlink:href="#linear-gradient"/>
    <linearGradient id="linear-gradient-5" x1="349.74" x2="319.65" xlink:href="#linear-gradient"/>
    <linearGradient id="linear-gradient-6" x1="395.68" x2="365.59" xlink:href="#linear-gradient"/>
    <linearGradient id="linear-gradient-7" x1="441.97" y1="462.63" x2="411.88" y2="410.51" xlink:href="#linear-gradient"/>
    <linearGradient id="linear-gradient-8" x1="487.75" y1="462.63" x2="457.66" y2="410.51" xlink:href="#linear-gradient"/>
  </defs>
  <g id="Layer_1-2" data-name="Layer 1">
    <g>
      <path class="cls-51" d="M9,252.12c1.01,1.37,2.01,2.7,3,4-.83,4.01-2.66,4.68-5.5,2-.35-1.72-.85-3.39-1.5-5,1.19-.93,2.52-1.26,4-1Z"/>
      <g>
        <path class="cls-35" d="M88,.12c4.71-.33,9.38,0,14,1-24.13,5.93-35.29,21.26-33.5,46,8.63,24.31,25.47,33.48,50.5,27.5,3.27-1.61,6.27-3.61,9-6,1.26-.98,2.59-1.32,4-1-16.78,21.59-37.45,26.26-62,14-22.25-18.31-26.08-39.81-11.5-64.5C66.11,7.23,75.94,1.56,88,.12Z"/>
        <path class="cls-37" d="M316,25.12c1.94.76,3.77,1.76,5.5,3,1.29-.45,2.45-1.12,3.5-2,.33,1.17.67,2.33,1,3.5-1.05,2.77-1.71,5.6-2,8.5h-3c-.05-3.14-1.71-4.8-5-5,.88-1.05,1.55-2.21,2-3.5-.91-1.41-1.58-2.91-2-4.5Z"/>
        <path class="cls-28" d="M484,98.12h-138c2.54-18.69,13.21-26.53,32-23.5,4.37,1.71,8.21,4.21,11.5,7.5,7.92-20.25,22.41-27.75,43.5-22.5,11.35,5.35,18.18,14.18,20.5,26.5.41.46.91.79,1.5,1,5.91-6.99,13.24-8.82,22-5.5,6.29,3.75,9.62,9.25,10,16.5h-3Z"/>
        <path class="cls-34" d="M302,104.12c-2.25,2.15-3.75,4.82-4.5,8-.39,6.41-.06,12.74,1,19-11.58,9.33-14.74,21-9.5,35-9.2,3.03-15.2,9.2-18,18.5-.06,1.71.61,3.04,2,4,6.28,1.34,11.94,0,17-4l9.5-9.5c4.12,2.1,8.29,4.1,12.5,6-.51,1.87-1.18,3.7-2,5.5.84,1.77,2.17,3.1,4,4,8.65,3.13,17.32,5.3,26,6.5.3,2.23-.04,4.23-1,6-1.71,1.16-3.71,1.82-6,2-12.59-1.08-23.92-5.08-34-12-.35,2.74-1.02,5.4-2,8,6.91,9.1,15.58,15.77,26,20-1.31,2.32-2.64,4.65-4,7-1.24.91-2.57,1.08-4,.5-11.42-5.08-20.75-12.75-28-23-3.31.21-6.64.21-10,0-.85-1.02-1.85-1.86-3-2.5-5.28,5.35-10.28,5.02-15-1-4.25,4.76-8.75,5.09-13.5,1-4.32,7.1-9.48,7.76-15.5,2-5.03,3.33-9.03,2.5-12-2.5-5.01,1.73-9.18.57-12.5-3.5-.49-1.63-.66-3.3-.5-5-6.02.64-9.35-2.02-10-8-4.6-.27-7.26-2.6-8-7-2.03-.16-4.03,0-6,.5-8.2,3.78-16.87,5.62-26,5.5-.96-2.93-1.63-5.93-2-9,8.43.06,16.43-1.94,24-6-1.68-3.11-2.35-6.45-2-10-9.14.43-18.14-.4-27-2.5-.95-3.06-1.28-6.22-1-9.5v-2c5.86,3.36,12.19,4.69,19,4-.53-3.71.47-6.88,3-9.5-2.69-4.06-2.35-7.9,1-11.5-4.82-4.2-5.15-8.7-1-13.5,1.29-.49,2.63-.66,4-.5-.41-4,.42-7.67,2.5-11,2.04-.92,4.21-1.26,6.5-1-.23-3.59.77-6.75,3-9.5,2.65-.5,5.31-.66,8-.5,1.4-6.7,5.4-8.7,12-6,2.79-8.26,7.79-9.93,15-5,4.43-6.23,9.26-6.56,14.5-1,5.29-6.57,10.62-6.57,16,0,4.74-3.07,8.91-2.4,12.5,2,8.52-5.5,13.52-3.17,15,7,2.27-1.04,4.6-1.21,7-.5,1.85,1.68,3.52,3.52,5,5.5,7.99-2.34,11.99.66,12,9Z"/>
        <path class="cls-38" d="M709,216.12c-11.1,5.61-18.93,14.27-23.5,26-2.21,4.8-3.71,9.8-4.5,15-21.11.47-36.94,9.8-47.5,28-2.3,4.4-3.47,9.06-3.5,14-.93,1.07-1.27,2.4-1,4h-4c-15.12-2.25-29.12.59-42,8.5-8.82,8.45-7.82,15.45,3,21,16.58,5.21,32.74,4.05,48.5-3.5,5.17,7.67,10.33,15.33,15.5,23-.53,2.12-1.86,3.62-4,4.5-2.69.77-5.36,1.6-8,2.5,10.03,20.35,24.7,36.02,44,47-4,4.33-8,8.67-12,13-1.69,1.19-3.36,1.02-5-.5-21.07-14.4-37.07-33.06-48-56-.67-.67-1.33-.67-2,0-3.03,4.01-7.03,6.18-12,6.5,1.66,17.14,6.83,33.14,15.5,48,3.02,4.02,6.35,7.68,10,11,.47,1.08.3,2.08-.5,3-5.22,2.19-10.56,4.19-16,6-2.4.11-4.24-.89-5.5-3-11.22-16.44-18.55-34.44-22-54-.89-4.97-1.55-9.97-2-15-10.18-.67-16.68-6-19.5-16-8.42,3.72-15.26,1.72-20.5-6-.17-4.04-.67-8.04-1.5-12-13.65,6.18-21.48,1.85-23.5-13-8.03,7.94-16.03,7.94-24,0-1.9-3.42-2.74-7.09-2.5-11-13.95,1.39-20.28-4.95-19-19-12.45-.29-17.95-6.62-16.5-19,.97-1.8,2.14-3.47,3.5-5-11.7-5.58-14.04-13.75-7-24.5-9.29-4.76-11.95-11.93-8-21.5-8.71-1.19-17.38-2.69-26-4.5-8.01-2.87-16.01-5.87-24-9-2.91-1.61-5.57-3.44-8-5.5,1.66-6.64,3.32-13.31,5-20,14.05,10.86,30.05,16.86,48,18-2.5-7.15-1-13.15,4.5-18,.48-.95.65-1.95.5-3-15.15-6.28-28.32-15.62-39.5-28-1.12-2.12-2.62-3.96-4.5-5.5.56-.38.89-.88,1-1.5,3.19-5.04,6.85-9.71,11-14,6.03,6.53,12.36,13.03,19,19.5,3.27,2.13,6.6,3.97,10,5.5,1.81-6.97,6.31-10.97,13.5-12-.46-10.44,4.38-16.77,14.5-19-4.99-10.99-1.99-18.66,9-23h6c1.71,1.24,3.71,1.9,6,2,.66-8.66,5.33-13.33,14-14,3.79-.02,7.29.98,10.5,3,8.3-12.13,17.8-13.13,28.5-3,4.28-6.49,10.28-8.99,18-7.5,3.48,2.49,6.65,5.32,9.5,8.5,9.01-8.29,17.68-7.96,26,1,.94,2.62,1.77,5.29,2.5,8,9.45-6.34,17.61-5.01,24.5,4,.33,3.33.67,6.67,1,10,9.36-6.37,17.36-5.04,24,4,.5,3.65.66,7.32.5,11,12.84-1.43,19.18,4.23,19,17,9.04-3.13,16.21-.79,21.5,7,1.6,7.28-.23,13.45-5.5,18.5,14.09.58,19.76,7.75,17,21.5,3.15-.29,6.15.21,9,1.5,8.21,6.8,9.21,14.63,3,23.5-1.45.67-2.78,1.34-4,2Z"/>
        <path class="cls-24" d="M302,104.12c6.93.76,10.76,4.76,11.5,12,.17,4.85.67,9.52,1.5,14h1c9.52,4.02,18.02,9.68,25.5,17,3.43,3.86,6.1,8.2,8,13,.17,1.67.33,3.33.5,5-.06,2.14-.72,3.81-2,5-3.21-2.73-6.21-5.73-9-9-.33.33-.67.67-1,1,.85,1.35,2.01,2.35,3.5,3,.67,1,.67,2,0,3-2.13.92-4.3,1.08-6.5.5,2.67,1.82,5.5,1.99,8.5.5,1.58.54,3.08,1.21,4.5,2,.02,2.78-1.31,5.28-4,7.5-10.31,5.01-20.97,5.84-32,2.5-4.21-1.9-8.38-3.9-12.5-6l-9.5,9.5c-5.06,4-10.72,5.34-17,4-1.39-.96-2.06-2.29-2-4,2.8-9.3,8.8-15.47,18-18.5-5.24-14-2.08-25.67,9.5-35-1.06-6.26-1.39-12.59-1-19,.75-3.18,2.25-5.85,4.5-8Z"/>
        <path class="cls-50" d="M18,115.12c2.21,1.15,4.54,2.15,7,3-1.9,1.43-2.23,3.1-1,5-2.58,1.05-5.25,1.72-8,2,.17-1.99-.5-3.66-2-5,2.11-1.1,3.44-2.77,4-5Z"/>
        <path class="cls-13" d="M412,127.12c-4.15,4.29-7.81,8.96-11,14-3.84-1.65-7.34-3.99-10.5-7,.82-3.55,2.65-6.71,5.5-9.5,2.09.22,4.09.05,6-.5,1.83-3,3.67-6,5.5-9,3.05,3.7,4.55,7.7,4.5,12Z"/>
        <path class="cls-54" d="M316,130.12h-1c-.17-3.68,0-7.35.5-11,4.42,3.72,4.58,7.39.5,11Z"/>
        <path class="cls-52" d="M322,143.12c2.58-.48,4.25.86,5,4-1.43,4.75-4.43,6.08-9,4,1.92-.81,3.92-1.31,6-1.5,1.58-2.86.91-5.03-2-6.5Z"/>
        <path class="cls-16" d="M147,146.12v2c-.97,2.45-1.31,5.12-1,8h-7v-7h3c-.16-2.03,0-4.03.5-6,1.62.89,3.12,1.89,4.5,3Z"/>
        <path class="cls-31" d="M58,158.12c.64,6.98,4.31,11.31,11,13-.5,6.99,1.5,13.16,6,18.5,1.72,1.56,3.72,2.39,6,2.5-1.49,5.72-1.33,11.39.5,17,4.05,3.15,6.71,2.15,8-3,.9-4.65,1.73-9.32,2.5-14,1.57-.96,3.24-1.62,5-2,1.84.66,3.51,1.66,5,3,6.18-2.58,11.85-5.92,17-10,1.76.76,2.76,2.1,3,4-1.43,3.26-3.76,5.76-7,7.5-4.89,2.46-9.89,4.63-15,6.5,1.88,3.02,4.71,4.35,8.5,4,5.14.29,9.81-1.05,14-4,.38.56.88.89,1.5,1v2c.36,2.27-.31,4.1-2,5.5-7.83,2.22-15.83,3.05-24,2.5-.15,3.81-2.15,5.48-6,5,.52,4.69-1.48,7.02-6,7,0,4-2,6-6,6,.97,5.18-1.03,8.34-6,9.5-1.37,3.68-4.04,5.35-8,5-1.89,3.59-4.73,4.42-8.5,2.5-1.47,1.13-3.13,1.79-5,2-4.13-.83-8.29-1.16-12.5-1-1.58,5.17-3.75,10.17-6.5,15-.82,1.32-1.98,1.99-3.5,2-1.67-.67-3.33-1.33-5-2,3.45-4.57,6.12-9.57,8-15-2.43-.08-4.43-1.08-6-3-4.05,4.56-8.55,8.56-13.5,12-.38-.56-.88-.89-1.5-1-.99-1.3-1.99-2.63-3-4,3.27-1.81,5.93-4.31,8-7.5-.44-1.92-1.11-3.75-2-5.5-3.17-.83-4.84-2.83-5-6-2.22.32-4.06-.35-5.5-2-2.72-6.46-4.22-13.13-4.5-20,.57-1.9,1.57-3.57,3-5-.55-1.27-.88-2.61-1-4,1.43-3.46,2.26-7.13,2.5-11,1.67-1,3.33-2,5-3-.16-4.67,2.01-7.33,6.5-8,.12-5.11,2.78-7.44,8-7,.59-3.82,2.92-5.48,7-5,.23-5.77,3.06-7.44,8.5-5,4.78-1.87,9.28-4.2,13.5-7,1.92.3,3.59.97,5,2Z"/>
        <path class="cls-15" d="M110,165.12c-2.16,1.72-4.82,2.55-8,2.5,1.29.49,2.63.66,4,.5-.15,1.05.02,2.05.5,3,1.49-1.66,3.32-2.66,5.5-3,.64,7.89-2.36,14.06-9,18.5-1.93,1.46-3.93,2.62-6,3.5-1.76.38-3.43,1.04-5,2-.77,4.68-1.6,9.35-2.5,14-1.29,5.15-3.95,6.15-8,3-1.83-5.61-1.99-11.28-.5-17-2.28-.11-4.28-.94-6-2.5-4.5-5.34-6.5-11.51-6-18.5-6.69-1.69-10.36-6.02-11-13,2.57-1.05,5.24-1.22,8-.5,3.58,1.95,6.91,4.11,10,6.5,8.62-3.61,17.62-4.78,27-3.5,2.74,1.03,5.07,2.53,7,4.5Z"/>
        <path class="cls-49" d="M348,170.12v1c-1.42-.79-2.92-1.46-4.5-2-3,1.49-5.83,1.32-8.5-.5,2.2.58,4.37.42,6.5-.5.67-1,.67-2,0-3-1.49-.65-2.65-1.65-3.5-3,.33-.33.67-.67,1-1,2.79,3.27,5.79,6.27,9,9Z"/>
        <path class="cls-40" d="M110,165.12c.9.79,1.57,1.79,2,3-2.18.34-4.01,1.34-5.5,3-.48-.95-.65-1.95-.5-3-1.37.16-2.71,0-4-.5,3.18.05,5.84-.78,8-2.5Z"/>
        <path class="cls-22" d="M85,167.12c2.33-1.42,4.33-.92,6,1.5-.42,2.09-1.59,3.59-3.5,4.5.66-1.54.99-3.2,1-5-1.01-.84-2.18-1.17-3.5-1Z"/>
        <path class="cls-44" d="M312,163.12c7.64,3.33,7.81,6.66.5,10-1.17-.17-2.33-.33-3.5-.5,7.99-1.13,8.99-4.3,3-9.5Z"/>
        <path class="cls-23" d="M383,172.12c-.67,2.33-1.33,4.67-2,7-.31-2.75.02-5.41,1-8,.61.12.94.46,1,1Z"/>
        <path class="cls-21" d="M153,176.12c.37,3.07,1.04,6.07,2,9-1.84.78-3.84,1.45-6,2-1.2-1.06-1.86-2.39-2-4,1.18-2.36,1.18-4.7,0-7,2.02-1.19,4.02-1.19,6,0Z"/>
        <path class="cls-25" d="M383,172.12c2.64,2.3,5.31,4.64,8,7-1.68,6.69-3.34,13.36-5,20-4.4-.8-8.73-1.8-13-3,.15-3.76.82-7.43,2-11,1.9-.97,3.9-1.3,6-1v-5c.67-2.33,1.33-4.67,2-7Z"/>
        <path class="cls-27" d="M91,180.12c4.62-1.09,6.46.58,5.5,5-.84,1.51-2,2.01-3.5,1.5,1.54-1.11,2.2-2.61,2-4.5-1.98.34-3.32-.32-4-2Z"/>
        <path class="cls-18" d="M122,187.12c-.24-1.9-1.24-3.24-3-4-.28-1.85.39-3.18,2-4,2.35,1.28,4.02,3.11,5,5.5-.86,1.6-2.19,2.43-4,2.5Z"/>
        <path class="cls-17" d="M339,203.12c.96-1.77,1.3-3.77,1-6,1.14-2.47,3.14-3.47,6-3v12c-1.7.16-3.37,0-5-.5-1.26-.42-1.92-1.25-2-2.5Z"/>
        <path class="cls-12" d="M124,204.12v-2c-.09-1.49.58-2.49,2-3l3,6c-2.45,4.14-4.12,3.8-5-1Z"/>
        <path class="cls-26" d="M709,216.12c6.74-1.22,10.91,1.45,12.5,8,.77,9.71-.73,19.05-4.5,28-2.85,6.51-6.51,12.51-11,18,1.02,1.35,2.02,2.68,3,4,19.62,23.93,27.45,51.26,23.5,82-1.79,6.25-4.63,11.92-8.5,17-1.52-.01-2.68-.68-3.5-2-1.71-2.92-3.54-5.75-5.5-8.5,2.85-5.08,2.35-9.91-1.5-14.5.44,2.93.94,5.93,1.5,9,.4,4.57-1.6,6.07-6,4.5-2.74-1.36-5.07-3.2-7-5.5l-1,1c2.84,5.08,7.17,7.58,13,7.5,2.72,3.27,5.05,6.77,7,10.5-11.03,6.65-22.69,7.81-35,3.5-13.82-6.32-25.82-15.15-36-26.5-5.17-7.67-10.33-15.33-15.5-23-15.76,7.55-31.92,8.71-48.5,3.5-10.82-5.55-11.82-12.55-3-21,12.88-7.91,26.88-10.75,42-8.5,1.42.95,3.09,1.28,5,1v-5c.03-4.94,1.2-9.6,3.5-14,10.56-18.2,26.39-27.53,47.5-28,.79-5.2,2.29-10.2,4.5-15,4.57-11.73,12.4-20.39,23.5-26Z"/>
        <path class="cls-36" d="M160,212.12c1.43,1.33,2.77,2.83,4,4.5,2.39-.35,4.72-.18,7,.5-3.54,2.63-3.88,5.63-1,9-1.42,1.05-2.92,1.05-4.5,0-1.86,1.7-4.03,2.7-6.5,3v-6c-5.99-.45-6.33-1.78-1-4,.92-2.28,1.59-4.61,2-7Z"/>
        <path class="cls-20" d="M323,221.12c2.36-.16,4.69,0,7,.5-1.52,1.35-2.85,2.85-4,4.5,2.2,2.76,1.37,4.76-2.5,6-2.52-.32-4.02-1.66-4.5-4,1.36-2.35,2.69-4.68,4-7Z"/>
        <path class="cls-33" d="M473,211.12c5.09,0,5.09.83,0,2.5-7.65,11.28-4.65,17.95,9,20-6.65,5.96-6.65,11.96,0,18,2.62.94,5.29,1.77,8,2.5-4.82,13.35-.15,20.51,14,21.5-11.32,4.54-17.99.7-20-11.5.26-3.09,1.26-5.93,3-8.5-10.1-1.03-14.26-6.53-12.5-16.5.64-1.47,1.47-2.8,2.5-4-5.13-1.31-9.3-3.97-12.5-8-1.63-7.75,1.21-13.08,8.5-16Z"/>
        <path class="cls-32" d="M360,237.12c1.55.32,2.21,1.32,2,3,1.79-.29,3.45.05,5,1-2.14,1.35-2.47,3.02-1,5-2.58,1.05-5.25,1.72-8,2,.32-2.22-.35-4.06-2-5.5,1.06-1.19,2.4-1.69,4-1.5v-4Z"/>
        <path class="cls-28" d="M118,249.12c15.29-2.76,27.12,2.24,35.5,15,2.27,4.21,4.27,8.54,6,13,10.93-8.84,20.93-7.84,30,3,1.14,2.93,1.98,5.93,2.5,9H51c.14-11.76,5.81-19.6,17-23.5,10.17-2.44,18.84.06,26,7.5,4.4-11.74,12.4-19.74,24-24Z"/>
        <path class="cls-53" d="M717,252.12c2.11.86,3.28,2.53,3.5,5,1.11,9.05-2.72,14.72-11.5,17-.98-1.32-1.98-2.65-3-4,4.49-5.49,8.15-11.49,11-18Z"/>
        <path class="cls-19" d="M25,263.12c1.67.67,3.33,1.33,5,2,.12,3.41-1.55,4.74-5,4v-3c-5.14-.56-5.14-1.56,0-3Z"/>
        <path class="cls-33" d="M512,236.12c.74-.13,1.41.04,2,.5-7.85,6.83-7.85,13.49,0,20,3.5.28,6.84.45,10,.5-4.15,12.69.51,18.52,14,17.5-2.61,10.05,1.22,15.89,11.5,17.5,3.17-.11,6.01-1.11,8.5-3,.73.98.39,1.98-1,3-15.34,6.79-22.68,1.95-22-14.5-12.45.39-17.45-5.44-15-17.5-13.32.53-18.16-5.47-14.5-18,2.36-1.87,4.53-3.87,6.5-6Z"/>
        <path class="cls-47" d="M630,299.12v5c-1.91.28-3.58-.05-5-1h4c-.27-1.6.07-2.93,1-4Z"/>
        <path class="cls-46" d="M377,335.12c-.3,8.42.03,16.75,1,25-1,18.49-1.33,37.16-1,56h-21v-81c-.33-6.04,0-12.04,1-18,3.36-3.03,6.69-6.03,10-9,9.11,6.62,12.45,15.62,10,27Z"/>
        <path class="cls-45" d="M423,335.12v81h-21v-56c.3-8.42-.03-16.75-1-25,.83-5.82,1.33-11.82,1.5-18,3.05-3.38,6.38-6.38,10-9,3.01,3.35,6.35,6.35,10,9,.5,5.99.67,11.99.5,18Z"/>
        <path class="cls-30" d="M706,298.12c.96.45,1.79,1.12,2.5,2,2.35,12.99-2.48,17.16-14.5,12.5-2.62-1.71-3.62-3.88-3-6.5,1.82,2.32,3.82,4.48,6,6.5,3.29.94,6.29.44,9-1.5,1.19-4.32,1.19-8.65,0-13Z"/>
        <path class="cls-45" d="M240,335.12v81h-21c.33-18.84,0-37.51-1-56,.97-8.25,1.3-16.58,1-25-.17-6.01,0-12.01.5-18,3.04-3.37,6.37-6.37,10-9,10,6.25,13.5,15.25,10.5,27Z"/>
        <path class="cls-46" d="M286,335.12v26c-1,18.16-1.33,36.49-1,55h-20c.33-18.51,0-36.84-1-55v-26c.83-5.82,1.33-11.82,1.5-18,3.05-3.38,6.38-6.38,10-9l10,10c.5,5.66.67,11.32.5,17Z"/>
        <path class="cls-42" d="M469,335.12v25c-1,18.49-1.33,37.16-1,56h-20c.33-18.84,0-37.51-1-56,.3-8.42-.03-16.75-1-25,.83-5.48,1.33-11.15,1.5-17,3.35-3.52,6.85-6.85,10.5-10,3.65,3.15,7.15,6.48,10.5,10,.5,5.66.67,11.32.5,17Z"/>
        <path class="cls-39" d="M149,335.12v25c-1,18.49-1.33,37.16-1,56h-20c.33-18.84,0-37.51-1-56v-25c.99-5.48,1.32-11.14,1-17,3.02-4.2,6.68-7.37,11-9.5,2.83,2.83,5.67,5.67,8.5,8.5.17,6.18.67,12.18,1.5,18Z"/>
        <path class="cls-46" d="M194,335.12v81h-21c.33-18.84,0-37.51-1-56,.97-8.25,1.3-16.58,1-25-.33-6.04,0-12.04,1-18,3.33-3,6.67-6,10-9,9.58,6.43,12.92,15.43,10,27Z"/>
        <path class="cls-46" d="M332,335.12v25c-1,18.49-1.33,37.16-1,56h-21v-81c-.17-5.68,0-11.34.5-17,3.35-3.52,6.85-6.85,10.5-10,3.32,2.82,6.48,5.82,9.5,9,.17,6.18.67,12.18,1.5,18Z"/>
        <path class="cls-29" d="M667,323.12c5.13,3.95,6.3,8.95,3.5,15-4.1,3.39-8.6,3.89-13.5,1.5-2.12-1.17-2.78-2.67-2-4.5,4.21,4.32,8.88,4.98,14,2,.56-1.44.9-2.94,1-4.5-.57-3.31-1.57-6.48-3-9.5Z"/>
        <path class="cls-43" d="M194,335.12h25c.3,8.42-.03,16.75-1,25h-24v-25Z"/>
        <path class="cls-10" d="M332,335.12h24v25h-24v-25Z"/>
        <path class="cls-41" d="M377,335.12h24c.97,8.25,1.3,16.58,1,25h-24c-.97-8.25-1.3-16.58-1-25Z"/>
        <path class="cls-10" d="M423,335.12h23c.97,8.25,1.3,16.58,1,25h-24v-25Z"/>
        <path class="cls-10" d="M286,335.12h24v25h-24v-25Z"/>
        <path class="cls-10" d="M149,335.12h24c.3,8.42-.03,16.75-1,25h-23v-25Z"/>
        <path class="cls-9" d="M469,335.12h15v25h-15v-25Z"/>
        <path class="cls-11" d="M127,335.12v25h-15v-25h15Z"/>
        <path class="cls-10" d="M240,335.12h24v25h-24v-25Z"/>
        <path class="cls-48" d="M724,373.12c-.79.9-1.79,1.57-3,2-1.95-3.73-4.28-7.23-7-10.5-5.83.08-10.16-2.42-13-7.5l1-1c1.93,2.3,4.26,4.14,7,5.5,4.4,1.57,6.4.07,6-4.5-.56-3.07-1.06-6.07-1.5-9,3.85,4.59,4.35,9.42,1.5,14.5,1.96,2.75,3.79,5.58,5.5,8.5.82,1.32,1.98,1.99,3.5,2Z"/>
        <path class="cls-14" d="M670,419.12c4-4.33,8-8.67,12-13,4.13-.3,8.13.7,12,3-2.99,2.5-5.99,5-9,7.5,1.53,1.58,2.03,3.42,1.5,5.5-2.35,2.52-4.85,4.85-7.5,7-3.85-2.83-6.85-6.17-9-10Z"/>
        <path class="cls-14" d="M628,431.12c1.05-.15,2.05.02,3,.5,2.38,2.18,4.71,4.34,7,6.5-3.76.85-7.42,1.85-11,3v6c-3.72.97-7.39,1.8-11,2.5-3.03-3.84-4.37-8-4-12.5,5.44-1.81,10.78-3.81,16-6Z"/>
        <polygon class="cls-1" points="177.51 457.03 157.89 457.03 128 416.12 147.62 416.12 177.51 457.03"/>
        <polygon class="cls-4" points="222.62 457.03 203 457.03 173.11 416.12 192.73 416.12 222.62 457.03"/>
        <polygon class="cls-3" points="268.62 457.03 249 457.03 219.11 416.12 238.73 416.12 268.62 457.03"/>
        <polygon class="cls-5" points="314.52 457.03 294.9 457.03 265.01 416.12 284.63 416.12 314.52 457.03"/>
        <polygon class="cls-6" points="359.45 457.03 339.83 457.03 309.94 416.12 329.56 416.12 359.45 457.03"/>
        <polygon class="cls-8" points="405.39 457.03 385.77 457.03 355.88 416.12 375.5 416.12 405.39 457.03"/>
        <polygon class="cls-7" points="451.68 457.03 432.06 457.03 402.17 416.12 421.79 416.12 451.68 457.03"/>
        <polygon class="cls-2" points="497.46 457.03 477.85 457.03 447.95 416.12 467.57 416.12 497.46 457.03"/>
      </g>
    </g>
  </g>
</svg>